<?xml version="1.0" encoding="utf-8"?>
<!-- Generator: Adobe Illustrator 24.3.0, SVG Export Plug-In . SVG Version: 6.00 Build 0)  -->
<svg version="1.1" id="Layer_1" xmlns="http://www.w3.org/2000/svg" xmlns:xlink="http://www.w3.org/1999/xlink" x="0px" y="0px"
	 viewBox="0 0 50 50" style="enable-background:new 0 0 50 50;" xml:space="preserve">
<path d="M31.39,5.13c-0.48-0.52-0.79-0.9-1.13-1.24c-0.51-0.5-0.94-1.06-0.26-1.66c0.61-0.54,1.1-0.04,1.54,0.4
	c1.39,1.39,2.8,2.75,4.16,4.18c0.56,0.59,0.89,0.69,1.54,0.05c2.39-2.34,2.39-2.28,4.74,0.16c0.62,0.65,0.54,1.02-0.04,1.57
	c-0.72,0.68-1.88,1.43-1.91,2.19c-0.04,0.92,1.26,1.56,1.99,2.31c2.08,2.12,4.2,4.21,6.29,6.32c0.45,0.45,1.12,0.94,0.46,1.64
	c-0.73,0.78-1.32,0.14-1.74-0.4c-0.72-0.92-1.2-0.79-1.99,0c-7.41,7.48-14.86,14.92-22.33,22.34c-0.7,0.7-0.97,1.16-0.05,1.86
	c0.54,0.41,1.24,1.03,0.55,1.74c-0.77,0.79-1.35-0.02-1.87-0.53c-0.94-0.91-1.89-1.82-2.77-2.79c-0.54-0.59-0.89-0.56-1.43,0
	c-1.28,1.35-2.66,2.62-3.93,3.98c-0.88,0.94-1.61,1.03-2.5,0.03c-0.87-0.97-1.89-1.82-2.75-2.8c-0.69-0.79-1.19-0.7-1.78,0.05
	c-0.21,0.28-0.48,0.52-0.75,0.75c-0.63,0.55-1.27,1.8-1.83,1.58c-0.95-0.37-1.64-1.42-2.43-2.2c-0.45-0.45-0.01-0.72,0.25-0.99
	c1.56-1.57,3.14-3.13,4.7-4.71c0.67-0.68,1.29-0.67,1.94,0.01c0.74,0.76,1.49,1.51,2.25,2.24c1.29,1.25,2,1.24,3.31-0.03
	c1.45-1.4,1.45-1.4,0.06-2.79c-2.92-2.92-5.84-5.84-8.76-8.77c-0.32-0.32-0.71-0.6-0.79-1.07c-0.07-0.39,0.12-0.68,0.45-0.88
	c0.57-0.34,1.02-0.01,1.31,0.39c0.93,1.32,1.59,0.85,2.52-0.09c7.27-7.34,14.59-14.63,21.89-21.93C30.6,5.74,30.97,5.48,31.39,5.13z
	 M29.59,11.86c-0.12-0.12-0.23-0.23-0.35-0.35c-0.93,0.93-1.87,1.85-2.79,2.78C21.53,19.2,16.63,24.11,11.7,29
	c-0.7,0.69-0.9,1.15-0.07,1.93c1.87,1.76,3.64,3.62,5.47,5.42c0.26,0.25,0.57,0.84,0.94,0.48c0.48-0.47-0.2-0.76-0.47-1.03
	c-1.54-1.59-3.07-3.19-4.71-4.68c-0.9-0.82-0.98-1.29-0.04-2.2c5.31-5.21,10.55-10.5,15.81-15.77C29,12.76,29.53,12.48,29.59,11.86z
	"/>
</svg>
