<?xml version="1.0" encoding="utf-8"?>
<!-- Generator: Adobe Illustrator 24.3.0, SVG Export Plug-In . SVG Version: 6.00 Build 0)  -->
<svg version="1.1" id="Layer_1" xmlns="http://www.w3.org/2000/svg" xmlns:xlink="http://www.w3.org/1999/xlink" x="0px" y="0px"
	 viewBox="0 0 50 50" style="enable-background:new 0 0 50 50;" xml:space="preserve">
<g>
	<path d="M25.01,22.45c-4.61,0-9.22,0.03-13.82-0.02c-0.95-0.01-1.15,0.29-1.15,1.19c0.04,5.86-0.01,11.72,0.04,17.58
		c0.01,1-0.29,1.27-1.24,1.2c-1.1-0.08-2.21-0.05-3.32-0.01c-0.61,0.02-0.84-0.15-0.84-0.8C4.7,34,4.7,26.41,4.69,18.81
		c0-0.48,0.16-0.72,0.62-0.88c6.42-2.18,12.83-4.36,19.24-6.57c0.44-0.15,0.78-0.05,1.17,0.08c6.24,2.13,12.47,4.28,18.72,6.38
		c0.75,0.25,0.92,0.6,0.92,1.34c-0.03,7.37-0.03,14.75,0,22.12c0,0.83-0.15,1.2-1.08,1.12c-1.06-0.09-2.14-0.07-3.2,0
		c-0.87,0.06-1.12-0.24-1.11-1.1c0.04-5.79,0.02-11.58,0.02-17.36c0-1.76,0.09-1.47-1.47-1.48C34,22.45,29.5,22.45,25.01,22.45z"/>
	<path d="M25.01,25.81c1.25,0,2.5,0.02,3.76-0.01c1.46-0.03,2.56,0.53,3.29,1.81c0.18,0.32,0.43,0.61,0.57,0.94
		c0.42,0.96,1.08,1.4,2.16,1.23c0.6-0.09,1.24-0.06,1.38,0.73c0.14,0.74-0.43,0.92-0.99,1.07c-0.34,0.09-0.52,0.25-0.27,0.62
		c0.96,1.47,0.93,3.14,0.94,4.8c0.01,1.47-0.02,2.95,0.01,4.42c0.02,0.72-0.27,1.02-0.98,0.97c-0.4-0.03-0.81-0.04-1.21,0
		c-0.92,0.1-1.43-0.2-1.28-1.22c0.08-0.61-0.27-0.73-0.8-0.73c-4.38,0.01-8.76,0.02-13.14,0c-0.64,0-0.87,0.24-0.8,0.84
		c0.11,0.9-0.34,1.13-1.17,1.11c-2.67-0.06-2.26,0.26-2.29-2.3c-0.01-1.44-0.02-2.87,0.02-4.31c0.03-1.22,0.15-2.44,0.86-3.49
		c0.31-0.46,0.14-0.65-0.32-0.76c-0.54-0.13-1.01-0.35-0.89-1.03c0.13-0.72,0.69-0.84,1.26-0.74c1.23,0.21,1.91-0.37,2.38-1.42
		c0.88-1.94,2.38-2.78,4.53-2.58C23.02,25.88,24.02,25.81,25.01,25.81z M24.98,31.8c2.35,0,4.71,0.01,7.06,0
		c1.18,0,1.29-0.19,0.7-1.17c-0.51-0.85-1.06-1.68-1.56-2.53c-0.52-0.87-1.26-1.3-2.27-1.29c-1.65,0.01-3.31-0.01-4.97,0
		c-4.99,0.03-3.92-0.51-6.68,3.86c-0.02,0.03-0.04,0.06-0.06,0.09c-0.5,0.76-0.25,1.05,0.61,1.04C20.2,31.79,22.59,31.8,24.98,31.8z
		 M17.64,36.4c0.33,0,0.66,0.01,0.99,0c0.55-0.02,0.93-0.28,1-0.84c0.06-0.51-0.27-0.81-0.73-0.97c-0.35-0.12-0.69-0.26-1.03-0.39
		c-0.7-0.25-1.41-0.57-2.04,0.11c-0.36,0.38-0.45,0.84-0.21,1.33c0.41,0.83,1.17,0.76,1.91,0.75C17.57,36.4,17.6,36.4,17.64,36.4z
		 M32.27,36.4C32.27,36.4,32.27,36.4,32.27,36.4c0.29,0,0.59,0.01,0.88-0.01c0.94-0.07,1.52-0.71,1.36-1.49
		c-0.16-0.76-0.85-1.15-1.72-0.91c-0.53,0.15-1.04,0.37-1.56,0.55c-0.54,0.18-0.96,0.48-0.82,1.11c0.13,0.61,0.63,0.76,1.19,0.74
		C31.82,36.39,32.04,36.4,32.27,36.4z M25.12,37.78c-0.81,0-1.61,0.01-2.42,0c-0.47,0-0.76,0.15-0.78,0.69
		c-0.01,0.54,0.26,0.71,0.74,0.71c1.57,0,3.15,0,4.72,0.01c0.42,0,0.7-0.13,0.71-0.62c0.01-0.49-0.16-0.78-0.68-0.78
		C26.65,37.78,25.88,37.78,25.12,37.78z"/>
	<path d="M1.08,16.82c-0.32-0.97,0.31-1.33,1.29-1.66c7.19-2.42,14.36-4.89,21.53-7.36c0.72-0.25,1.37-0.3,2.12-0.04
		c7.24,2.51,14.49,4.97,21.73,7.47c0.41,0.14,1.08,0.08,1.14,0.68c0.08,0.8,0.2,1.69-0.07,2.4c-0.2,0.53-1.06,0.17-1.63,0.22
		c-0.49,0.05-0.54-0.29-0.49-0.65c0.08-0.58-0.28-0.76-0.73-0.91c-6.8-2.31-13.59-4.63-20.38-6.97c-0.46-0.16-0.85-0.11-1.28,0.04
		c-6.72,2.31-13.45,4.6-20.17,6.91c-0.32,0.11-0.84,0.1-0.8,0.6c0.11,1.48-0.98,0.94-1.65,0.96c-1.07,0.04-0.43-0.85-0.61-1.31
		C1.06,17.16,1.08,17.07,1.08,16.82z"/>
</g>
</svg>
