<?xml version="1.0" encoding="utf-8"?>
<!-- Generator: Adobe Illustrator 24.3.0, SVG Export Plug-In . SVG Version: 6.00 Build 0)  -->
<svg version="1.1" id="Layer_1" xmlns="http://www.w3.org/2000/svg" xmlns:xlink="http://www.w3.org/1999/xlink" x="0px" y="0px"
	 viewBox="0 0 50 50" style="enable-background:new 0 0 50 50;" xml:space="preserve">
<g>
	<path d="M30.61,25.3c0.05,2.51-0.08,5.56,0.09,8.6c0.09,1.61,0.25,3.2,0.45,4.8c0.03,0.21,0.11,0.41-0.26,0.34
		c-1-0.19-2.02-0.16-3.04-0.16c-2.27,0-4.54,0.01-6.8,0c-0.68,0-1.35,0.04-2.02,0.14c-0.28,0.04-0.39,0.05-0.34-0.3
		c0.47-3.34,0.58-6.7,0.56-10.08c-0.03-4.52-0.01-9.04,0-13.56c0-0.44-0.07-0.61-0.57-0.59c-1.07,0.04-1.07,0.01-1.07,1.09
		c0,5.09,0,10.19,0,15.28c0,2.76-0.23,5.51-0.61,8.24c-0.04,0.27-0.13,0.42-0.4,0.51c-0.68,0.22-1.33,0.5-1.94,0.86
		c-0.28,0.17-0.35,0.1-0.41-0.21c-0.48-2.43-2.29-4.18-4.71-4.55c-0.3-0.05-0.47-0.18-0.61-0.44c-1.03-1.87-1.14-3.88-1.02-5.96
		c0.19-3.32,1.11-6.49,1.84-9.7c0.25-1.09,0.49-2.18,0.77-3.26c0.25-0.99,0.92-1.59,1.91-1.82c0.28-0.07,0.36-0.02,0.35,0.31
		c-0.04,1.4-0.02,2.81-0.04,4.21c0,0.25,0.09,0.3,0.32,0.31c1.31,0.06,1.31,0.07,1.31-1.21c0-0.93-0.01-1.86,0-2.79
		c0.01-1.45,1.05-2.5,2.5-2.5c5.38-0.01,10.76-0.01,16.15,0c1.42,0,2.46,1.05,2.47,2.48c0.01,1.2,0.01,2.4,0,3.6
		c-0.01,0.33,0.09,0.42,0.42,0.42c1.21,0,1.21,0.01,1.21-1.2c-0.01-1.13,0-2.27-0.04-3.4c-0.01-0.34,0.14-0.28,0.33-0.24
		c0.98,0.21,1.69,0.77,1.91,1.75c0.83,3.66,1.91,7.26,2.42,10.99c0.27,1.99,0.49,4.01-0.04,6c-0.09,0.36-0.22,0.71-0.34,1.06
		c-0.27,0.82-0.7,1.31-1.67,1.54c-2.25,0.54-3.6,2.1-4.09,4.37c-0.07,0.34-0.14,0.39-0.44,0.22c-0.62-0.36-1.27-0.64-1.94-0.86
		c-0.25-0.08-0.34-0.23-0.37-0.47c-0.39-2.85-0.62-5.72-0.61-8.6c0.01-5.16,0-10.32,0.01-15.49c0-0.44-0.09-0.57-0.55-0.56
		c-1.08,0.04-1.09,0.01-1.09,1.08C30.61,18.64,30.61,21.7,30.61,25.3z"/>
	<path d="M24.92,48.63c-4.98,0-9.95,0-14.93,0c-3.29,0-5.38-2.09-5.37-5.4c0-0.84-0.08-1.69,0.08-2.53c0.4-2.13,2.3-3.63,4.36-3.43
		c2.11,0.2,3.65,1.95,3.68,4.14c0.01,0.78-0.07,1.56,0.08,2.33c0.36,1.84,1.96,3.2,3.83,3.26c0.49,0.02,0.98,0,1.47,0.01
		c0.51,0.01,0.33-0.41,0.28-0.58c-0.1-0.35,0.39-0.9-0.28-1.03c-0.44-0.09-0.91-0.01-1.37-0.02c-1.35-0.04-2.38-1.11-2.4-2.46
		c0-0.27,0.08-0.43,0.31-0.57c1.78-1.13,3.72-1.8,5.83-1.83c2.96-0.04,5.92-0.05,8.88,0c2.11,0.03,4.05,0.7,5.83,1.84
		c0.21,0.13,0.29,0.28,0.29,0.53c0,1.35-1.03,2.44-2.37,2.49c-0.44,0.02-0.88,0.02-1.32,0c-0.27-0.01-0.38,0.06-0.38,0.36
		c-0.03,1.27-0.04,1.23,1.24,1.28c2.41,0.1,4.15-1.52,4.41-3.55c0.08-0.65,0.04-1.32,0.04-1.98c0.01-2.39,1.74-4.21,4.01-4.23
		c2.22-0.02,4.08,1.84,4.11,4.17c0.01,1.01,0.1,2.03-0.07,3.04c-0.41,2.41-2.44,4.15-4.91,4.16C35.14,48.64,30.03,48.63,24.92,48.63
		z"/>
	<path d="M24.97,1.51c2.06,0,4.13,0,6.19,0c0.8,0,1.07,0.27,1.07,1.06c0,1.47,0,2.94,0,4.42c0,0.73-0.28,1.02-1.01,1.02
		c-4.2,0-8.39,0-12.59,0c-0.73,0-1.02-0.28-1.02-1.01c0-1.47,0-2.94,0-4.42c0-0.8,0.27-1.07,1.06-1.07
		C20.77,1.51,22.87,1.51,24.97,1.51z"/>
	<path d="M45.24,8.14c-0.46-1.81-1.57-2.92-3.39-3.38c0.83-0.21,1.57-0.57,2.18-1.17c0.62-0.61,0.99-1.36,1.2-2.23
		c0.46,1.8,1.57,2.94,3.55,3.39C46.84,5.22,45.69,6.31,45.24,8.14z"/>
	<path d="M7.99,12.07c-1.8,0.46-2.92,1.56-3.38,3.39C4.4,14.64,4.05,13.9,3.45,13.3c-0.61-0.62-1.35-1-2.23-1.21
		c1.79-0.47,2.94-1.56,3.38-3.56C5.07,10.47,6.16,11.62,7.99,12.07z"/>
	<path d="M24.92,9.64c1.22,0,2.43,0.01,3.65-0.01C28.91,9.62,29,9.72,29,10.05c0,1.21,0.01,1.21-1.2,1.21
		c-2.16,0-4.33-0.01-6.49,0.01c-0.36,0-0.45-0.1-0.45-0.45c0.01-1.18-0.01-1.18,1.18-1.18C23,9.64,23.96,9.64,24.92,9.64z"/>
</g>
</svg>
