<svg width="25" height="20" viewBox="0 0 25 20" fill="none" xmlns="http://www.w3.org/2000/svg">
<path d="M20.3018 18.98H16.3643C16.0361 18.98 15.8018 18.7456 15.8018 18.4175V16.5425C15.8018 16.2612 16.0361 15.98 16.3643 15.98H20.3018C21.0986 15.98 21.8018 15.3237 21.8018 14.48V5.47998C21.8018 4.68311 21.0986 3.97998 20.3018 3.97998H16.3643C16.0361 3.97998 15.8018 3.74561 15.8018 3.41748V1.54248C15.8018 1.26123 16.0361 0.97998 16.3643 0.97998H20.3018C22.7861 0.97998 24.8018 2.99561 24.8018 5.47998V14.48C24.8018 16.9644 22.7861 18.98 20.3018 18.98ZM18.0986 9.55811C18.5205 10.0269 18.5205 10.73 18.0986 11.1519L10.2236 19.0269C9.52051 19.73 8.30176 19.2612 8.30176 18.23V13.73H1.92676C1.27051 13.73 0.801758 13.2612 0.801758 12.605V8.10498C0.801758 7.49561 1.27051 6.97998 1.92676 6.97998H8.30176V2.47998C8.30176 1.49561 9.52051 0.97998 10.2236 1.68311L18.0986 9.55811Z" fill="white"/>
</svg>
